<?xml version="1.0" encoding="UTF-8" standalone="no"?>
<svg
   xmlns:dc="http://purl.org/dc/elements/1.1/"
   xmlns:cc="http://creativecommons.org/ns#"
   xmlns:rdf="http://www.w3.org/1999/02/22-rdf-syntax-ns#"
   xmlns:svg="http://www.w3.org/2000/svg"
   xmlns="http://www.w3.org/2000/svg"
   version="1.1"
   width="420"
   viewBox="0 0 420 512"
   height="512"
   enable-background="new 0 0 512 512"
   id="Capa_1">
  <metadata
     id="metadata25">
    <rdf:RDF>
      <cc:Work
         rdf:about="">
        <dc:format>image/svg+xml</dc:format>
        <dc:type
           rdf:resource="http://purl.org/dc/dcmitype/StillImage" />
        <dc:title></dc:title>
      </cc:Work>
    </rdf:RDF>
  </metadata>
  <defs
     id="defs23" />
  <g
     transform="translate(-46)"
     id="g18">
    <path
       style="fill:#fff5f5"
       id="path2"
       d="m 181,316 h -75 l 15,196 h 60 60 l 15,-196 z" />
    <path
       style="fill:#efe2dd"
       id="path4"
       d="m 256,316 h -75 v 196 h 60 z" />
    <path
       style="fill:#38211a"
       id="path6"
       d="m 466,136 v 105 l -28.125,30 H 382.563 L 346,241 v -15 c 0,-57.9 47.1,-105 105,-105 8.401,0 15,6.599 15,15 z" />
    <path
       style="fill:#ff641a"
       id="path8"
       d="m 466,241 v 135 c 0,74.7 -60.3,136 -135,136 h -30 l -45,-15 v -15 h 15 c 41.4,0 75,-33.6 75,-75 V 241 Z" />
    <path
       style="fill:#ff641a"
       id="path10"
       d="M 286,454.563 V 286 c 0,-32.754 -14.883,-63.062 -40.84,-83.115 H 181 116.84 C 90.883,222.938 76,253.246 76,286 V 454.563 C 58.539,460.76 46,477.444 46,497 c 0,8.291 6.709,15 15,15 h 60 c 8.276,0 15,-6.724 15,-15 V 376 c 0,-24.814 20.186,-45 45,-45 24.814,0 45,20.186 45,45 v 121 c 0,8.276 6.724,15 15,15 h 60 c 8.291,0 15,-6.709 15,-15 0,-19.556 -12.539,-36.24 -30,-42.437 z" />
    <path
       style="fill:#f03800"
       id="path12"
       d="m 226,376 v 121 c 0,8.276 6.724,15 15,15 h 60 c 8.291,0 15,-6.709 15,-15 0,-19.556 -12.539,-36.24 -30,-42.437 V 286 c 0,-32.754 -14.883,-63.062 -40.84,-83.115 H 181 V 331 c 24.814,0 45,20.186 45,45 z" />
    <path
       style="fill:#ff9100"
       id="path14"
       d="M 285.707,12.056 C 284.301,5.054 278.148,0 271,0 234.774,0 204.481,25.811 197.509,60 H 181 164.491 C 157.519,25.811 127.226,0 91,0 83.852,0 77.699,5.054 76.293,12.056 l -30,151 c -1.128,5.669 1.084,11.484 5.713,14.941 l 120,90 c 2.666,2.007 5.83,3.003 8.994,3.003 3.164,0 6.328,-0.996 8.994,-3.003 l 120,-90 c 4.629,-3.457 6.841,-9.272 5.713,-14.941 z" />
    <path
       style="fill:#ff641a"
       id="path16"
       d="m 309.994,177.997 c 4.629,-3.457 6.841,-9.272 5.713,-14.941 l -30,-151 C 284.301,5.054 278.148,0 271,0 234.774,0 204.481,25.811 197.509,60 H 181 v 211 c 3.164,0 6.328,-0.996 8.994,-3.003 z" />
  </g>
  <rect
     ry="19.974245"
     y="355.09259"
     x="13.636822"
     height="62.995693"
     width="242.21086"
     id="rect4545"
     style="fill:#f9ffff;fill-opacity:1;fill-rule:nonzero;stroke:#000026;stroke-width:1.68672633;stroke-miterlimit:4;stroke-dasharray:none;stroke-opacity:1" />
  <text
     id="text4799"
     y="463.45767"
     x="31.559319"
     style="font-style:normal;font-variant:normal;font-weight:normal;font-stretch:normal;font-size:192px;line-height:1.25;font-family:Arial;-inkscape-font-specification:Arial;letter-spacing:0px;word-spacing:0px;fill:#000000;fill-opacity:1;stroke:none"
     xml:space="preserve"><tspan
       style="font-size:133.33332825px;line-height:0"
       y="463.45767"
       x="31.559319"
       id="tspan4797">****</tspan></text>
</svg>
